<?xml version="1.0" encoding="UTF-8"?>
<svg version="1.1" xmlns="http://www.w3.org/2000/svg" width="512" height="512">
<path d="M0 0 C1.44365542 1.18000913 2.88141397 2.36727815 4.3125 3.5625 C4.96734375 4.07167969 5.6221875 4.58085937 6.296875 5.10546875 C20.49978761 16.60982797 31.40780389 35.49391787 34.3125 53.5625 C34.21484375 56.7109375 34.21484375 56.7109375 33.3125 59.5625 C32.47976563 60.160625 31.64703125 60.75875 30.7890625 61.375 C28.00941138 63.83021235 27.91977317 64.24537396 27.6484375 67.75 C27.63520182 69.35416491 27.64907127 70.95874083 27.6875 72.5625 C27.66816406 73.36945313 27.64882813 74.17640625 27.62890625 75.0078125 C27.64792861 77.31332288 27.7461463 79.32640364 28.3125 81.5625 C30.71252949 83.88316795 30.71252949 83.88316795 33.3125 85.5625 C36.16801677 93.79404556 30.72815138 104.10194873 27.3125 111.5625 C23.26263946 119.64334061 18.26850387 126.77802943 12.3125 133.5625 C11.64734375 134.32304687 10.9821875 135.08359375 10.296875 135.8671875 C3.88789306 142.72717187 -5.29235191 150.52809251 -14.6875 152.5625 C-14.44628418 153.10438965 -14.20506836 153.6462793 -13.95654297 154.20458984 C-4.68445431 175.14284426 4.17230908 197.0125953 5.8671875 220.09765625 C6.46098656 234.19369655 6.46098656 234.19369655 14 245.4375 C15.07288565 246.33939952 16.15612239 247.22914795 17.25 248.10546875 C32.25296882 260.1422894 40.60773411 283.05960551 43.3125 301.5625 C44.83256187 327.03244707 42.05493635 352.48211109 26.3125 373.5625 C23.3125 375.5625 23.3125 375.5625 19.52734375 375.34765625 C16.18328187 375.26881936 14.52553921 375.73107199 11.94140625 377.87109375 C10.89321474 378.88787258 9.87126838 379.93229501 8.875 381 C8.07884277 381.81718506 8.07884277 381.81718506 7.26660156 382.65087891 C3.65456264 386.58719353 2.52196896 389.21817716 2.58984375 394.609375 C2.2083011 397.29629504 1.23448472 398.02096321 -0.875 399.6875 C-2.45045325 400.69233856 -4.05924544 401.64569 -5.6875 402.5625 C-6.66976563 403.13871094 -7.65203125 403.71492188 -8.6640625 404.30859375 C-22.5724849 411.88168089 -37.33328187 415.18180272 -53.12695312 415.49145508 C-60.38925003 415.83801576 -63.72472966 418.43008005 -68.6875 423.5625 C-82.64780477 435.89082548 -98.20235675 445.93522046 -114.6875 454.5625 C-115.31849609 454.89701172 -115.94949219 455.23152344 -116.59960938 455.57617188 C-137.15325501 466.32440858 -159.87303712 472.81888612 -182.6875 476.5625 C-183.86723389 476.75730957 -183.86723389 476.75730957 -185.07080078 476.95605469 C-205.12593314 480.06963688 -226.45957529 479.62138652 -246.5625 477.25 C-247.55910645 477.13245361 -248.55571289 477.01490723 -249.58251953 476.89379883 C-255.3816412 476.11557679 -261.40816144 475.21234702 -266.6875 472.5625 C-269.02918764 469.04996854 -269.18373677 467.69780644 -268.6875 463.5625 C-267.25 460.6875 -267.25 460.6875 -264.6875 458.5625 C-259.2405768 457.80160102 -253.67749055 458.7690375 -248.29492188 459.63037109 C-203.33490987 466.74073754 -157.58015614 458.12896923 -117.6875 436.5625 C-117.0888916 436.24313477 -116.4902832 435.92376953 -115.87353516 435.59472656 C-96.94473197 426.06497641 -96.94473197 426.06497641 -82.6875 411.5625 C-84.481875 411.253125 -84.481875 411.253125 -86.3125 410.9375 C-90.21013339 410.15307064 -93.27810573 408.75121548 -96.76806641 406.86572266 C-99.72304209 405.33717605 -102.43786338 404.28871676 -105.6875 403.5625 C-109.50077067 405.0240706 -112.05113372 407.54031184 -115.06445312 410.2421875 C-147.96819 437.00864493 -198.92876522 443.27105255 -239.49609375 439.31640625 C-269.55053212 435.95178561 -299.0059971 425.08857358 -323.6875 407.5625 C-324.70714844 406.84578125 -325.72679687 406.1290625 -326.77734375 405.390625 C-333.67968655 400.38043022 -340.03654486 394.87766463 -346.19189453 388.99072266 C-347.17978342 388.04734198 -348.17288081 387.10938208 -349.17138672 386.17724609 C-376.15714258 360.95317162 -396.15281954 324.19681349 -401.6875 287.5625 C-401.6875 286.2425 -401.6875 284.9225 -401.6875 283.5625 C-402.49445313 283.49160156 -403.30140625 283.42070312 -404.1328125 283.34765625 C-408.76302072 282.32493993 -412.43745619 280.28275729 -416.5625 278 C-417.34625 277.57525391 -418.13 277.15050781 -418.9375 276.71289062 C-420.85850387 275.67039462 -422.7748249 274.62017555 -424.6875 273.5625 C-423.83655493 314.56258076 -403.40460014 356.5267226 -377.40234375 387.33984375 C-371.7418226 394.05548911 -371.7418226 394.05548911 -371.3125 398.0625 C-371.86218354 403.19287975 -371.86218354 403.19287975 -374.6875 405.5625 C-377.875 406.75 -377.875 406.75 -381.6875 406.5625 C-389.64963842 402.18584886 -395.40536796 392.74476123 -400.6875 385.5625 C-401.30214111 384.73613037 -401.30214111 384.73613037 -401.92919922 383.89306641 C-414.92911134 366.18527951 -425.12771419 345.49574001 -431.6875 324.5625 C-431.94966309 323.7468457 -432.21182617 322.93119141 -432.48193359 322.09082031 C-437.43261293 306.51451073 -441.21289398 290.45174428 -442.09375 274.08984375 C-442.15530273 273.01968018 -442.21685547 271.9495166 -442.28027344 270.84692383 C-442.38187539 268.80526099 -442.44998324 266.76153292 -442.47753906 264.7175293 C-442.80091789 257.76428573 -444.7798518 254.55431319 -449.65576172 249.65332031 C-452.52119954 246.70455685 -454.43010969 243.47236065 -456.375 239.875 C-456.75092285 239.19074951 -457.1268457 238.50649902 -457.51416016 237.80151367 C-465.46078261 222.93978497 -469.26643669 207.13448606 -469.125 190.3125 C-469.11742676 189.04196777 -469.10985352 187.77143555 -469.10205078 186.46240234 C-468.93018297 176.62328405 -467.83556866 167.86940704 -464.6875 158.5625 C-464.47851074 157.92747559 -464.26952148 157.29245117 -464.05419922 156.63818359 C-456.68582492 134.72071966 -440.68510737 115.21616633 -420.71875 103.55859375 C-418.6875 102.5625 -418.6875 102.5625 -416.6875 102.5625 C-416.84734375 101.88316406 -417.0071875 101.20382813 -417.171875 100.50390625 C-419.06535958 89.70243739 -418.6899699 76.31219816 -412.5625 66.875 C-410.6875 64.5625 -410.6875 64.5625 -409.6875 63.5625 C-408.49125 63.541875 -407.295 63.52125 -406.0625 63.5 C-402.09085228 63.07370508 -400.55079825 61.777321 -398 58.75 C-397.43539062 58.03199219 -396.87078125 57.31398438 -396.2890625 56.57421875 C-394.3535524 54.14302923 -392.2467752 52.31743156 -389.6875 50.5625 C-389.0275 50.5625 -388.3675 50.5625 -387.6875 50.5625 C-387.914375 49.840625 -388.14125 49.11875 -388.375 48.375 C-388.6875 45.5625 -388.6875 45.5625 -387.625 42.9375 C-383.42327638 37.78700008 -377.03798799 36.37666513 -370.6875 35.5625 C-352.96556459 34.41275475 -339.2775242 38.47722647 -325.71875 49.890625 C-323.79193217 51.60324778 -323.79193217 51.60324778 -321.6875 52.5625 C-318.93147229 51.31338722 -316.2559057 49.99852526 -313.5625 48.625 C-291.51600153 37.82550311 -256.84161281 24.27436477 -231.6875 28.5625 C-228.44137075 31.12920685 -227.82975102 32.56674284 -227.25 36.625 C-227.74364221 39.93945487 -228.42514199 41.1392632 -230.6875 43.5625 C-232.75390625 44.28515625 -232.75390625 44.28515625 -235.25 44.625 C-236.23226562 44.77453125 -237.21453125 44.9240625 -238.2265625 45.078125 C-239.36867187 45.23796875 -240.51078125 45.3978125 -241.6875 45.5625 C-265.53603523 49.11770935 -288.04972688 55.19267061 -309.82421875 65.75 C-311.6875 66.5625 -311.6875 66.5625 -313.6875 66.5625 C-313.42195312 67.22894531 -313.15640625 67.89539063 -312.8828125 68.58203125 C-312.35300781 69.96455078 -312.35300781 69.96455078 -311.8125 71.375 C-311.29042969 72.71498047 -311.29042969 72.71498047 -310.7578125 74.08203125 C-309.29571957 78.83650132 -308.49996432 83.66092353 -307.6875 88.5625 C-307.16655762 88.29622803 -306.64561523 88.02995605 -306.10888672 87.75561523 C-257.39527981 63.10171289 -204.99837045 59.77972202 -153.21264648 76.64282227 C-149.98657994 77.81778047 -146.84326531 79.21002915 -143.6875 80.5625 C-143.6875 72.9725 -143.6875 65.3825 -143.6875 57.5625 C-161.50966212 51.22900437 -179.41509891 46.70669303 -198.2890625 45.01953125 C-201.4765419 44.59087023 -203.84883254 44.05356901 -206.6875 42.5625 C-209.02918764 39.04996854 -209.18373677 37.69780644 -208.6875 33.5625 C-206.74052472 30.44275844 -205.68743493 28.80029841 -202.04296875 27.93359375 C-182.74506361 28.33811211 -164.11552658 33.1784079 -145.6875 38.5625 C-144.3127982 38.9567704 -142.93783208 39.35012139 -141.5625 39.7421875 C-140.61375 40.01289062 -139.665 40.28359375 -138.6875 40.5625 C-137.96046875 39.02142578 -137.96046875 39.02142578 -137.21875 37.44921875 C-126.26676198 14.62797226 -110.01470583 -3.64726963 -85.6875 -12.4375 C-56.27681994 -21.34525217 -25.1557059 -19.22153938 0 0 Z M-34.375 159.4375 C-40.74871269 160.88138313 -47.21464128 161.69699684 -53.6875 162.5625 C-52.8521875 164.2021875 -52.8521875 164.2021875 -52 165.875 C-47.44340171 175.03040592 -43.54480088 184.22993221 -40.3125 193.9375 C-39.96614502 194.96093506 -39.61979004 195.98437012 -39.26293945 197.03881836 C-37.88107926 201.26175846 -36.57471372 205.28965724 -36.19140625 209.73046875 C-35.76545571 214.42738681 -35.76545571 214.42738681 -33.6875 218.5625 C-28.52228182 221.74458381 -22.64112981 223.35469413 -16.83300781 224.95068359 C-14.37317001 225.65213484 -12.03307537 226.54415349 -9.6875 227.5625 C-10.23292062 203.61357646 -19.81821208 180.04095031 -29.6875 158.5625 C-31.27698913 158.5625 -32.8284543 159.07052305 -34.375 159.4375 Z " fill="#010101" transform="translate(468.6875,25.4375)"/>
<path d="M0 0 C17.24666832 14.96928927 29.59038706 34.70745409 31.35595703 57.90039062 C32.31196951 77.02064017 29.02624637 95.16348123 18.25 111.3125 C16.03138667 114.94295818 15.54131128 116.53342964 16.1875 120.6875 C16.83090345 122.36328466 17.49452614 124.0315986 18.1875 125.6875 C16.28547311 127.72410426 14.36811509 129.74081336 12.4375 131.75 C11.89867187 132.33072266 11.35984375 132.91144531 10.8046875 133.50976562 C9.203125 135.16015625 9.203125 135.16015625 6.1875 137.6875 C4.18652344 137.40795898 4.18652344 137.40795898 2.1875 136.6875 C-0.91790926 135.47668149 -0.91790926 135.47668149 -4.8125 135.6875 C-7.75770033 137.18745497 -10.48800444 138.93909422 -13.28515625 140.69921875 C-17.20210113 143.03216336 -21.33142927 144.56455822 -25.625 146.0625 C-26.32995605 146.31265869 -27.03491211 146.56281738 -27.76123047 146.82055664 C-48.06335272 153.71159766 -71.72641524 151.2081363 -90.75683594 141.93139648 C-98.19404237 138.10275873 -104.62279985 133.32381636 -110.8125 127.6875 C-111.46734375 127.10226562 -112.1221875 126.51703125 -112.796875 125.9140625 C-127.29422703 112.25062895 -136.42567139 91.63629108 -137.05078125 71.84375 C-137.4427661 48.51715157 -133.03780414 28.2819052 -116.8125 10.6875 C-116.00167969 9.78515625 -115.19085938 8.8828125 -114.35546875 7.953125 C-83.97143832 -24.25483698 -34.6283572 -27.04585778 0 0 Z " fill="#FDDF76" transform="translate(465.8125,275.3125)"/>
<path d="M0 0 C0.65742188 0.57363281 1.31484375 1.14726562 1.9921875 1.73828125 C2.95125 2.50140625 3.9103125 3.26453125 4.8984375 4.05078125 C18.25082658 15.19728707 29.07501766 34.48037146 30.9921875 51.73828125 C31.2920315 56.48954429 31.3950057 61.22820376 31.4296875 65.98828125 C31.44515625 67.76477051 31.44515625 67.76477051 31.4609375 69.57714844 C31.38531718 77.08246538 30.37367882 83.62522924 27.9921875 90.73828125 C27.41017578 92.50365234 27.41017578 92.50365234 26.81640625 94.3046875 C18.26237289 116.85088538 3.1014281 132.69842349 -18.46484375 143.1640625 C-36.62546722 151.23322596 -59.53670856 153.41185427 -78.62890625 147.12890625 C-89.58141645 142.62128355 -99.05394644 137.61635934 -108.0078125 129.73828125 C-108.8328125 129.10148438 -109.6578125 128.4646875 -110.5078125 127.80859375 C-124.68001502 116.07223854 -134.19913145 96.12126758 -136.73046875 78.13671875 C-138.79912714 52.78836941 -133.45492459 30.9462919 -117.0703125 11.1171875 C-87.75053958 -22.70050513 -35.01512172 -29.27612874 0 0 Z " fill="#FCDE75" transform="translate(152.0078125,149.26171875)"/>
<path d="M0 0 C14.50004945 10.36626342 27.18955223 24.89939848 31.30078125 42.62109375 C31.50574219 43.50023437 31.71070313 44.379375 31.921875 45.28515625 C32.07140625 46.07664063 32.2209375 46.868125 32.375 47.68359375 C34.03804421 51.00623625 34.03804421 51.00623625 41.671875 53.91015625 C41.671875 59.85015625 41.671875 65.79015625 41.671875 71.91015625 C39.361875 72.90015625 37.051875 73.89015625 34.671875 74.91015625 C32.13142342 78.83128804 30.86660159 83.1094093 29.421875 87.53515625 C23.10189314 105.33581521 11.21597407 119.95172003 -5.734375 128.66015625 C-8.90839438 130.14708425 -12.09269262 131.5627746 -15.328125 132.91015625 C-16.16214844 133.27109375 -16.99617188 133.63203125 -17.85546875 134.00390625 C-22.86412858 135.8396236 -28.04997724 136.33019848 -33.328125 136.91015625 C-34.05386719 137.0076416 -34.77960938 137.10512695 -35.52734375 137.20556641 C-40.80239338 137.86270862 -46.16411877 138.45260195 -51.328125 136.91015625 C-55.22434871 133.67964494 -57.52057699 130.03722863 -60.12548828 125.74902344 C-62.1456001 122.66021259 -64.61252281 120.02494858 -67.140625 117.34765625 C-67.64489014 116.81060059 -68.14915527 116.27354492 -68.66870117 115.72021484 C-81.08065137 102.66182937 -95.01155833 90.25067649 -111.54296875 82.6796875 C-115.80601823 78.45395136 -115.59590211 70.88686246 -115.70874023 65.17651367 C-115.66041511 45.13419454 -110.00250698 27.99031581 -96.328125 12.91015625 C-95.62816406 12.12898438 -94.92820312 11.3478125 -94.20703125 10.54296875 C-69.70460338 -15.40077841 -29.70746585 -18.66974719 0 0 Z " fill="#FCDE75" transform="translate(455.328125,35.08984375)"/>
<path d="M0 0 C17.91453616 6.92132328 32.99725102 21.64936314 41.00390625 39.046875 C42.40249047 42.41931017 43.65419045 45.6921849 44.48046875 49.25390625 C44.68542969 50.13304687 44.89039063 51.0121875 45.1015625 51.91796875 C45.25109375 52.70945313 45.400625 53.5009375 45.5546875 54.31640625 C47.21773171 57.63904875 47.21773171 57.63904875 54.8515625 60.54296875 C54.8515625 66.48296875 54.8515625 72.42296875 54.8515625 78.54296875 C52.5415625 79.53296875 50.2315625 80.52296875 47.8515625 81.54296875 C45.31111092 85.46410054 44.04628909 89.7422218 42.6015625 94.16796875 C36.28158064 111.96862771 24.39566157 126.58453253 7.4453125 135.29296875 C4.27129312 136.77989675 1.08699488 138.1955871 -2.1484375 139.54296875 C-3.00824219 139.90261719 -3.86804688 140.26226562 -4.75390625 140.6328125 C-9.04413118 142.2635179 -12.5360792 143.2070996 -17.1484375 142.54296875 C-30.59432516 135.84221285 -40.89352942 125.80438077 -49.0234375 113.29296875 C-49.61378784 112.38913452 -49.61378784 112.38913452 -50.21606445 111.46704102 C-52.15278637 108.41548159 -53.26011788 106.09624723 -54.1484375 102.54296875 C-47.8784375 102.54296875 -41.6084375 102.54296875 -35.1484375 102.54296875 C-35.11105469 104.0846875 -35.07367188 105.62640625 -35.03515625 107.21484375 C-34.9694967 109.24090975 -34.90304936 111.26695033 -34.8359375 113.29296875 C-34.81337891 114.30875 -34.79082031 115.32453125 -34.76757812 116.37109375 C-34.7144043 117.840625 -34.7144043 117.840625 -34.66015625 119.33984375 C-34.63397217 120.24057617 -34.60778809 121.14130859 -34.58081055 122.06933594 C-34.07113495 124.98522141 -33.17186222 126.40658585 -31.1484375 128.54296875 C-28.86954408 129.02465603 -28.86954408 129.02465603 -26.4609375 128.79296875 C-25.65269531 128.756875 -24.84445312 128.72078125 -24.01171875 128.68359375 C-23.39683594 128.6371875 -22.78195312 128.59078125 -22.1484375 128.54296875 C-21.15387841 125.55929149 -20.95284118 123.34254955 -20.83203125 120.21875 C-20.76918945 118.67670898 -20.76918945 118.67670898 -20.70507812 117.10351562 C-20.66576172 116.03166016 -20.62644531 114.95980469 -20.5859375 113.85546875 C-20.52116211 112.2302832 -20.52116211 112.2302832 -20.45507812 110.57226562 C-20.34896912 107.89596084 -20.24691389 105.21956349 -20.1484375 102.54296875 C-19.44235352 102.53362305 -18.73626953 102.52427734 -18.00878906 102.51464844 C-14.80463205 102.46091216 -11.60192993 102.37727118 -8.3984375 102.29296875 C-7.28726563 102.27878906 -6.17609375 102.26460938 -5.03125 102.25 C-3.96132813 102.21777344 -2.89140625 102.18554688 -1.7890625 102.15234375 C-0.31228027 102.12092285 -0.31228027 102.12092285 1.19433594 102.08886719 C4.56716684 101.39595558 5.80098195 100.27342092 7.8515625 97.54296875 C7.94072404 93.91646924 7.94072404 93.91646924 6.8515625 90.54296875 C3.51352559 88.31761081 2.22336539 88.25318471 -1.69140625 88.12890625 C-2.76455078 88.09023437 -3.83769531 88.0515625 -4.94335938 88.01171875 C-6.06291016 87.98078125 -7.18246094 87.94984375 -8.3359375 87.91796875 C-10.03266602 87.85996094 -10.03266602 87.85996094 -11.76367188 87.80078125 C-14.55843 87.70644342 -17.35318028 87.62085223 -20.1484375 87.54296875 C-20.1484375 84.57296875 -20.1484375 81.60296875 -20.1484375 78.54296875 C-19.47264648 78.5179126 -18.79685547 78.49285645 -18.10058594 78.46704102 C-15.0330207 78.35086133 -11.96574592 78.22823438 -8.8984375 78.10546875 C-7.83496094 78.06615234 -6.77148438 78.02683594 -5.67578125 77.98632812 C-4.65097656 77.94443359 -3.62617188 77.90253906 -2.5703125 77.859375 C-1.62768555 77.82271729 -0.68505859 77.78605957 0.28613281 77.74829102 C2.59407627 77.56357647 4.63296774 77.18435263 6.8515625 76.54296875 C7.191875 74.68671875 7.191875 74.68671875 7.5390625 72.79296875 C7.66667969 72.096875 7.79429687 71.40078125 7.92578125 70.68359375 C7.97659667 68.47059809 7.97659667 68.47059809 6.9140625 66.32421875 C3.6793707 63.53062129 0.31014731 63.86779555 -3.8359375 63.79296875 C-5.03186523 63.74849609 -5.03186523 63.74849609 -6.25195312 63.703125 C-8.21690499 63.63252793 -10.18267727 63.58547167 -12.1484375 63.54296875 C-8.30327911 56.04578777 -3.96049094 48.88810556 0.4765625 41.73046875 C1.31997192 40.369823 1.31997192 40.369823 2.18041992 38.98168945 C4.45960645 35.3219555 6.73123619 31.68836902 9.2265625 28.171875 C11.6430001 24.26259013 11.30208413 22.04818506 10.8515625 17.54296875 C8.87003547 15.19345038 8.87003547 15.19345038 5.1640625 14.79296875 C2.41319567 14.91107394 1.23166373 15.19238126 -0.80859375 17.07421875 C-2.76379457 19.80285282 -4.46173186 22.64541153 -6.1484375 25.54296875 C-7.07598319 27.08592499 -8.00585562 28.62748386 -8.9375 30.16796875 C-11.01290437 33.60835061 -13.0726921 37.05751872 -15.125 40.51171875 C-18.97412452 46.95881832 -23.03196137 53.26430314 -27.1484375 59.54296875 C-29.80745285 57.1268178 -31.52034521 54.50378867 -33.36328125 51.4296875 C-33.96720703 50.42873047 -34.57113281 49.42777344 -35.19335938 48.39648438 C-35.81791016 47.35169922 -36.44246094 46.30691406 -37.0859375 45.23046875 C-38.32305505 43.17117546 -39.5613047 41.11256178 -40.80078125 39.0546875 C-41.37812012 38.08837402 -41.95545898 37.12206055 -42.55029297 36.12646484 C-43.84095835 34.04002715 -45.18955335 32.08942631 -46.65234375 30.125 C-48.1484375 27.54296875 -48.1484375 27.54296875 -48.11328125 24.96484375 C-40.27606114 5.29246939 -19.43804767 -6.99912555 0 0 Z " fill="#FDEEAB" transform="translate(442.1484375,28.45703125)"/>
<path d="M0 0 C6.15036399 5.11535128 6.15036399 5.11535128 6.75 9.8125 C6.375 12.875 6.375 12.875 4.8125 15.25 C1.27367133 17.60921911 -0.42323986 17.63269445 -4.625 16.875 C-7.01751075 15.29577078 -9.16025642 13.54259101 -11.3515625 11.6953125 C-20.26898901 4.55524248 -30.58783436 3.71500929 -41.625 4.875 C-51.19616812 7.15120587 -60.04344419 13.06376329 -65.25366211 21.51757812 C-65.70620361 22.29552734 -66.15874512 23.07347656 -66.625 23.875 C-65.37364258 23.86452637 -64.12228516 23.85405273 -62.83300781 23.84326172 C-58.1888312 23.80705235 -53.54466707 23.78409604 -48.90039062 23.76513672 C-46.89060365 23.7550813 -44.8808313 23.74143515 -42.87109375 23.72412109 C-39.98173412 23.69985276 -37.09256798 23.68851229 -34.203125 23.6796875 C-33.30507141 23.66936493 -32.40701782 23.65904236 -31.48175049 23.64840698 C-30.64118103 23.64825592 -29.80061157 23.64810486 -28.93457031 23.64794922 C-28.19732727 23.643508 -27.46008423 23.63906677 -26.70050049 23.63449097 C-24.25034007 23.9184156 -22.70708765 24.55851768 -20.625 25.875 C-18.625 28.875 -18.625 28.875 -18.8125 32.375 C-19.62926024 35.89335181 -19.84593439 36.808452 -22.625 38.875 C-24.84599304 39.23576355 -24.84599304 39.23576355 -27.46362305 39.21557617 C-28.4444133 39.21534958 -29.42520355 39.21512299 -30.43571472 39.21488953 C-31.49204605 39.19940567 -32.54837738 39.18392181 -33.63671875 39.16796875 C-34.72008011 39.16372391 -35.80344147 39.15947906 -36.91963196 39.15510559 C-40.38417277 39.13829569 -43.84813462 39.10063848 -47.3125 39.0625 C-49.65949682 39.04745619 -52.00650274 39.03376726 -54.35351562 39.02148438 C-60.11087505 38.98838461 -65.86789617 38.93816205 -71.625 38.875 C-71.625 41.515 -71.625 44.155 -71.625 46.875 C-71.04506287 46.87055878 -70.46512573 46.86611755 -69.86761475 46.86154175 C-63.83315494 46.81730431 -57.79874118 46.78713184 -51.76416016 46.76513672 C-49.51186248 46.75507747 -47.25957786 46.74142854 -45.00732422 46.72412109 C-41.77047502 46.69986969 -38.53379845 46.6885161 -35.296875 46.6796875 C-34.28945251 46.66936493 -33.28203003 46.65904236 -32.24407959 46.64840698 C-31.30340637 46.64825592 -30.36273315 46.64810486 -29.39355469 46.64794922 C-28.56748718 46.643508 -27.74141968 46.63906677 -26.89031982 46.63449097 C-24.33418141 46.90587621 -22.78372041 47.48863172 -20.625 48.875 C-18.625 51.875 -18.625 51.875 -18.8125 55.375 C-19.62845943 58.88990216 -19.8727189 59.78734175 -22.625 61.875 C-24.61820984 62.23576355 -24.61820984 62.23576355 -26.9128418 62.21557617 C-27.77350754 62.21534958 -28.63417328 62.21512299 -29.5209198 62.21488953 C-30.90855278 62.19166374 -30.90855278 62.19166374 -32.32421875 62.16796875 C-33.27440384 62.16372391 -34.22458893 62.15947906 -35.2035675 62.15510559 C-38.24016588 62.13830484 -41.27610202 62.10064992 -44.3125 62.0625 C-46.37043313 62.04745497 -48.42837665 62.03376625 -50.48632812 62.02148438 C-55.53280748 61.98839671 -60.57879144 61.93660462 -65.625 61.875 C-64.68742167 63.16488862 -63.74428243 64.45073637 -62.79882812 65.73486328 C-62.01191589 66.80959396 -62.01191589 66.80959396 -61.20910645 67.90603638 C-59.15140639 70.46365274 -56.93037075 72.06516527 -54.125 73.75 C-53.2278125 74.30429688 -52.330625 74.85859375 -51.40625 75.4296875 C-42.52297347 80.04599693 -32.0583637 80.22615992 -22.3515625 78.1875 C-16.25231924 76.1373342 -11.54972267 72.94021918 -6.625 68.875 C-3.625 66.875 -3.625 66.875 -0.125 67.0625 C3.375 67.875 3.375 67.875 5.3125 69.0625 C7.04025127 72.0098404 7.0136616 73.49009354 6.375 76.875 C2.26210194 83.47936516 -3.75866355 87.50660854 -10.625 90.875 C-11.46160156 91.29007812 -12.29820313 91.70515625 -13.16015625 92.1328125 C-24.05488266 96.61610999 -39.53520545 97.08341345 -50.75 93.3125 C-52.40268228 92.55789909 -54.02847784 91.74212066 -55.625 90.875 C-57.14480469 90.09382813 -57.14480469 90.09382813 -58.6953125 89.296875 C-69.04197984 83.65323827 -78.81051589 75.31458997 -82.3203125 63.54296875 C-82.42085937 62.99253906 -82.52140625 62.44210938 -82.625 61.875 C-83.883125 61.936875 -85.14125 61.99875 -86.4375 62.0625 C-88.95613951 62.04021115 -90.35495606 62.01002197 -92.625 60.875 C-94.2585229 57.6079542 -94.40111221 54.38161606 -93.625 50.875 C-91.25 48.375 -91.25 48.375 -88.625 46.875 C-87.965 46.875 -87.305 46.875 -86.625 46.875 C-86.625 44.235 -86.625 41.595 -86.625 38.875 C-87.40875 38.75125 -88.1925 38.6275 -89 38.5 C-91.625 37.875 -91.625 37.875 -93.625 35.875 C-94.30105634 28.88908451 -94.30105634 28.88908451 -92 25.4375 C-89.625 23.875 -89.625 23.875 -86.6875 23.75 C-83.53767716 23.21615435 -83.53767716 23.21615435 -82.375 20.9140625 C-81.55356104 19.1576963 -80.74444179 17.39553484 -79.9453125 15.62890625 C-74.62794043 4.53793788 -64.11844597 -3.97849435 -52.74609375 -8.41796875 C-34.89583397 -14.36805534 -14.92018959 -11.71224118 0 0 Z " fill="#040302" transform="translate(132.625,173.125)"/>
<path d="M0 0 C0.97001953 0.00451172 1.94003906 0.00902344 2.93945312 0.01367188 C5.3138676 0.0253685 7.68815021 0.04175914 10.0625 0.0625 C10.0625 0.3925 10.0625 0.7225 10.0625 1.0625 C9.44246094 1.03027344 8.82242188 0.99804688 8.18359375 0.96484375 C-5.11313088 1.13903665 -16.1348766 10.28133174 -25.23046875 19.265625 C-40.53455746 35.07764162 -51.44482608 55.62941419 -51.9375 78.0625 C-51.98777344 79.34511719 -52.03804688 80.62773437 -52.08984375 81.94921875 C-52.72508855 104.4747944 -45.46302549 125.7805315 -30.9375 143.0625 C-30.04611328 144.17238281 -30.04611328 144.17238281 -29.13671875 145.3046875 C-21.1273648 154.88938022 -11.02380121 161.49752597 0.0625 167.0625 C0.0625 167.3925 0.0625 167.7225 0.0625 168.0625 C-21.4153384 169.36331121 -40.31267503 162.31086898 -56.578125 148.2109375 C-57.35671875 147.50195312 -58.1353125 146.79296875 -58.9375 146.0625 C-59.59234375 145.47726562 -60.2471875 144.89203125 -60.921875 144.2890625 C-75.41922703 130.62562895 -84.55067139 110.01129108 -85.17578125 90.21875 C-85.5677661 66.89215157 -81.16280414 46.6569052 -64.9375 29.0625 C-64.12667969 28.16015625 -63.31585938 27.2578125 -62.48046875 26.328125 C-45.94184439 8.79669889 -24.00075903 -0.21326717 0 0 Z " fill="#FCCF5A" transform="translate(413.9375,256.9375)"/>
<path d="M0 0 C0.86560547 0.00451172 1.73121094 0.00902344 2.62304688 0.01367188 C4.72789539 0.02530087 6.83270758 0.04322927 8.9375 0.0625 C8.9375 0.3925 8.9375 0.7225 8.9375 1.0625 C8.36644531 1.05347656 7.79539062 1.04445312 7.20703125 1.03515625 C-7.00798569 1.55494224 -18.97608242 11.70773397 -28.48974609 21.53710938 C-37.3132697 31.08935445 -43.70853872 41.83895652 -48.0625 54.0625 C-47.0725 54.5575 -47.0725 54.5575 -46.0625 55.0625 C-50.72701613 65.28001152 -50.72701613 65.28001152 -53.94921875 67.16796875 C-55.8125 67.625 -55.8125 67.625 -59.0625 68.0625 C-61.24581689 69.82386355 -61.24581689 69.82386355 -61.2578125 72.0078125 C-61.23460938 72.72710937 -61.21140625 73.44640625 -61.1875 74.1875 C-61.14625 75.46625 -61.105 76.745 -61.0625 78.0625 C-59.0825 79.0525 -57.1025 80.0425 -55.0625 81.0625 C-54.53125 86.375 -54.53125 86.375 -55.0625 89.0625 C-57.0625 90.39583333 -59.0625 91.72916667 -61.0625 93.0625 C-61.76858124 95.99273713 -61.45818935 97.99590757 -61.0625 101.0625 C-59.06880631 103.50464222 -59.06880631 103.50464222 -55.125 103.25 C-52.96875 103.46875 -52.96875 103.46875 -51.0625 104.0625 C-49.06010805 107.35675773 -48.19474204 110.01199299 -47.71484375 113.82421875 C-46.91947256 117.77249848 -45.37329617 121.12496005 -43.5625 124.6875 C-43.20792725 125.3875415 -42.85335449 126.08758301 -42.48803711 126.80883789 C-33.14171431 144.71904816 -18.49099783 158.75160882 -0.0625 167.0625 C-0.0625 167.3925 -0.0625 167.7225 -0.0625 168.0625 C-21.90998823 169.09602113 -40.60997321 162.53829067 -57.0625 148.0625 C-57.8875 147.42570313 -58.7125 146.78890625 -59.5625 146.1328125 C-73.73470252 134.39645729 -83.25381895 114.44548633 -85.78515625 96.4609375 C-87.85381464 71.11258816 -82.50961209 49.27051065 -66.125 29.44140625 C-52.47119557 13.69298409 -33.49421742 2.33517198 -12.48217773 0.23242188 C-8.3202422 -0.05985006 -4.17000226 -0.04205588 0 0 Z " fill="#FCCE5A" transform="translate(101.0625,130.9375)"/>
<path d="M0 0 C2.33263945 2.24858037 2.95384447 3.55936858 3.29296875 6.796875 C3.25816406 7.77140625 3.22335937 8.7459375 3.1875 9.75 C3.14689453 11.22726562 3.14689453 11.22726562 3.10546875 12.734375 C3.07066406 13.48203125 3.03585937 14.2296875 3 15 C3.90878906 14.91298828 3.90878906 14.91298828 4.8359375 14.82421875 C11.99220997 14.438881 17.1037531 15.89139245 23 20 C27.76453139 24.36822101 31.62757556 28.78608642 32.2109375 35.38671875 C32.46818356 42.16416309 32.46818356 42.16416309 30.7265625 45.2734375 C29 47 29 47 25.0625 47.5625 C21.88569081 47.38180076 21.16081377 47.13542212 18.625 45 C16.94051078 41.89017374 16.26468821 39.3387287 15.78515625 35.8671875 C14.57760508 32.99549864 12.75579171 32.35571904 10 31 C5.18486161 30.38243537 0.35061069 30.53642145 -4.5 30.5625 C-5.81871094 30.54251953 -7.13742187 30.52253906 -8.49609375 30.50195312 C-10.40068359 30.50291992 -10.40068359 30.50291992 -12.34375 30.50390625 C-13.50068359 30.50205322 -14.65761719 30.5002002 -15.84960938 30.49829102 C-19.63405366 31.10097491 -21.28405047 32.35046644 -24 35 C-25.96752105 38.9350421 -25.46422595 43.7105522 -25 48 C-23.19881522 51.00197464 -22.09667268 52.45166366 -19 54 C-16.61467028 54.10811956 -14.25332368 54.16130528 -11.8671875 54.17578125 C-10.40623591 54.19899971 -8.9452984 54.22311784 -7.484375 54.24804688 C-5.18708152 54.28299506 -2.89029896 54.31240999 -0.59277344 54.32592773 C9.35394201 54.39586894 16.85580083 54.55728253 24.75 61.375 C32.39245951 70.29120276 32.92456881 78.48078948 32.26074219 89.85058594 C31.51839662 95.97007134 28.32919452 100.1077733 23.66796875 103.89453125 C18.49452233 107.46328993 15.20255836 109.12981445 8.875 109.0625 C7.77929688 109.05347656 6.68359375 109.04445313 5.5546875 109.03515625 C4.29011719 109.01775391 4.29011719 109.01775391 3 109 C3.04640625 109.81984375 3.0928125 110.6396875 3.140625 111.484375 C3.19476563 113.10085938 3.19476563 113.10085938 3.25 114.75 C3.29640625 115.81734375 3.3428125 116.8846875 3.390625 117.984375 C3 121 3 121 1.16796875 123.35546875 C-1 125 -1 125 -3.9375 125.5625 C-7 125 -7 125 -9.875 123.125 C-12.84400951 118.75880954 -12.44797592 115.12683554 -12 110 C-12.969375 110.061875 -13.93875 110.12375 -14.9375 110.1875 C-23.19248868 110.10445182 -29.14000432 106.88056406 -35.046875 101.2421875 C-39.01249655 96.68965396 -41.10934688 91.77693655 -41.5625 85.75 C-41 82 -41 82 -38.9375 78.9375 C-36 77 -36 77 -32.375 77 C-27.5810219 78.42043796 -27.5810219 78.42043796 -26 81 C-25.48558183 82.98177491 -25.06119005 84.94531452 -24.72265625 86.96484375 C-23.69479039 89.85953626 -22.41339433 91.08969182 -20 93 C-16.5873407 93.6160671 -16.5873407 93.6160671 -12.75 93.53125 C-11.70730957 93.53699036 -11.70730957 93.53699036 -10.64355469 93.54284668 C-9.17771959 93.5455618 -7.71183572 93.53822835 -6.24609375 93.52148438 C-4.00671025 93.50006419 -1.77053413 93.52129443 0.46875 93.546875 C1.89584039 93.54423165 3.32292879 93.5391065 4.75 93.53125 C6.04421875 93.52673828 7.3384375 93.52222656 8.671875 93.51757812 C12.05104918 93.26073772 12.05104918 93.26073772 14.41772461 91.17382812 C16.66086779 88.09205882 16.56649909 85.77514313 16.5625 82 C16.58441406 80.783125 16.60632813 79.56625 16.62890625 78.3125 C16.29535013 74.91098401 16.29535013 74.91098401 13.90893555 72.82226562 C10.28966761 70.55502132 8.0781157 70.51599753 3.828125 70.53125 C3.14627136 70.52420044 2.46441772 70.51715088 1.76190186 70.5098877 C-1.13354626 70.48061151 -4.02830741 70.49692 -6.92382812 70.50927734 C-17.74377768 70.5215393 -26.81578106 69.9456989 -35 62 C-41.07551153 53.60498732 -42.32609164 45.14403431 -41 35 C-38.69148723 26.31559483 -33.32142147 21.59838363 -25.8671875 17.015625 C-22.58915381 15.23259412 -19.97207129 14.88446273 -16.3125 14.9375 C-15.10013672 14.95103516 -15.10013672 14.95103516 -13.86328125 14.96484375 C-12.94095703 14.98224609 -12.94095703 14.98224609 -12 15 C-12.04640625 14.25234375 -12.0928125 13.5046875 -12.140625 12.734375 C-12.43234391 4.77461617 -12.43234391 4.77461617 -10.5 1.3125 C-6.6884824 -0.68854674 -4.29076011 -0.54485843 0 0 Z " fill="#050402" transform="translate(417,279)"/>
<path d="M0 0 C7.17044345 2.26654343 12.0104157 14.27094937 15.53833008 20.4140625 C16.66502525 22.34948779 17.7926274 24.28438536 18.92114258 26.21875 C19.46158203 27.1478418 20.00202148 28.07693359 20.55883789 29.03417969 C23.64695137 34.30098754 26.86688746 39.48584623 30.10083008 44.6640625 C32.75700588 41.44566462 35.09340178 38.21505514 37.23754883 34.63671875 C38.09751465 33.21008911 38.09751465 33.21008911 38.97485352 31.75463867 C39.57330078 30.75537354 40.17174805 29.7561084 40.78833008 28.7265625 C44.91362025 21.89465589 49.03995866 15.06841678 53.35083008 8.3515625 C54.03661133 7.28292969 54.72239258 6.21429688 55.42895508 5.11328125 C57.10083008 2.6640625 57.10083008 2.6640625 59.10083008 0.6640625 C66.00493967 0.11611729 66.00493967 0.11611729 69.10083008 1.6640625 C70.71563533 4.893673 70.57297487 8.1638429 70.10083008 11.6640625 C68.80567836 14.31576139 67.57305967 16.46024571 65.91333008 18.8515625 C65.00440129 20.22956166 64.09692994 21.6085229 63.19067383 22.98828125 C62.69809082 23.72739746 62.20550781 24.46651367 61.69799805 25.22802734 C58.69268887 29.81178995 55.84699916 34.49559458 52.97583008 39.1640625 C51.84867591 40.98725745 50.72110927 42.81019749 49.59301758 44.6328125 C48.76223846 45.97653162 47.93148889 47.32026901 47.10083008 48.6640625 C48.20942383 48.67824219 49.31801758 48.69242188 50.46020508 48.70703125 C51.92378792 48.75394096 53.38732831 48.80218831 54.85083008 48.8515625 C55.58043945 48.85736328 56.31004883 48.86316406 57.06176758 48.86914062 C60.95215059 49.02829266 62.73896457 49.3158523 65.58520508 52.0546875 C67.29617648 55.00038053 67.78482993 56.32956324 67.10083008 59.6640625 C65.23055523 61.90839232 63.71196604 63.35849452 61.10083008 64.6640625 C59.36038838 64.74855878 57.61673286 64.77129274 55.87426758 64.76171875 C54.32739258 64.75688477 54.32739258 64.75688477 52.74926758 64.75195312 C51.6690332 64.74357422 50.58879883 64.73519531 49.47583008 64.7265625 C47.84387695 64.71979492 47.84387695 64.71979492 46.17895508 64.71289062 C43.48619219 64.70108026 40.79353819 64.68461028 38.10083008 64.6640625 C38.10083008 67.6340625 38.10083008 70.6040625 38.10083008 73.6640625 C38.80167725 73.63787842 39.50252441 73.61169434 40.22460938 73.5847168 C43.41228658 73.4805271 46.59960533 73.41566667 49.78833008 73.3515625 C50.89112305 73.30966797 51.99391602 73.26777344 53.13012695 73.22460938 C61.29921956 73.10120918 61.29921956 73.10120918 65.36645508 75.95703125 C67.10083008 78.6640625 67.10083008 78.6640625 67.16333008 82.2890625 C65.97991118 86.04815782 65.42708502 86.76187378 62.10083008 88.6640625 C59.44360352 89.00463867 59.44360352 89.00463867 56.46020508 88.95703125 C55.3902832 88.94736328 54.32036133 88.93769531 53.21801758 88.92773438 C51.55125977 88.8900293 51.55125977 88.8900293 49.85083008 88.8515625 C48.16086914 88.83125977 48.16086914 88.83125977 46.43676758 88.81054688 C43.65763744 88.77521895 40.87947645 88.7258877 38.10083008 88.6640625 C38.12177734 89.33985352 38.14272461 90.01564453 38.16430664 90.71191406 C38.24754651 93.77914504 38.29951474 96.84613832 38.35083008 99.9140625 C38.40110352 101.50927734 38.40110352 101.50927734 38.45239258 103.13671875 C38.4652832 104.16152344 38.47817383 105.18632812 38.49145508 106.2421875 C38.51240234 107.18481445 38.53334961 108.12744141 38.55493164 109.09863281 C37.96132854 112.45217121 36.76442873 113.60501895 34.10083008 115.6640625 C30.60083008 116.2265625 30.60083008 116.2265625 27.10083008 115.6640625 C24.42064859 113.44008212 23.22997307 111.67339069 22.78442383 108.19116211 C22.70683097 105.23472121 22.75249446 102.30730416 22.85083008 99.3515625 C22.86887695 98.32482422 22.88692383 97.29808594 22.90551758 96.24023438 C22.95251945 93.71388365 23.01820736 91.18945781 23.10083008 88.6640625 C22.39998291 88.69024658 21.69913574 88.71643066 20.97705078 88.7434082 C17.78937358 88.8475979 14.60205482 88.91245833 11.41333008 88.9765625 C10.31053711 89.01845703 9.20774414 89.06035156 8.0715332 89.10351562 C-0.09755941 89.22691582 -0.09755941 89.22691582 -4.16479492 86.37109375 C-5.89916992 83.6640625 -5.89916992 83.6640625 -5.96166992 80.0390625 C-4.77825103 76.27996718 -4.22542486 75.56625122 -0.89916992 73.6640625 C1.75805664 73.32348633 1.75805664 73.32348633 4.74145508 73.37109375 C5.81137695 73.38076172 6.88129883 73.39042969 7.98364258 73.40039062 C9.65040039 73.4380957 9.65040039 73.4380957 11.35083008 73.4765625 C13.04079102 73.49686523 13.04079102 73.49686523 14.76489258 73.51757812 C17.54402272 73.55290605 20.32218371 73.6022373 23.10083008 73.6640625 C23.10083008 70.6940625 23.10083008 67.7240625 23.10083008 64.6640625 C22.39998291 64.6954834 21.69913574 64.7269043 20.97705078 64.75927734 C17.78947466 64.88430102 14.60241422 64.96212882 11.41333008 65.0390625 C10.31053711 65.08933594 9.20774414 65.13960938 8.0715332 65.19140625 C0.11353765 65.33565995 0.11353765 65.33565995 -2.78442383 63.41381836 C-5.13115058 60.74550312 -5.89916992 59.03633821 -5.89916992 55.4765625 C-4.83110241 52.47262262 -4.47240275 51.46893522 -1.89916992 49.6640625 C0.89334591 49.28731732 3.48862209 49.06214309 6.28833008 48.9765625 C7.03791992 48.94240234 7.78750977 48.90824219 8.55981445 48.87304688 C10.40629846 48.79071956 12.25354001 48.72570969 14.10083008 48.6640625 C13.61727051 47.86822754 13.13371094 47.07239258 12.63549805 46.25244141 C10.81252527 43.25192322 8.98980125 40.25125421 7.16723633 37.25048828 C6.3838047 35.9607158 5.60027877 34.6710006 4.81665039 33.38134766 C4.43863281 32.75921387 4.06061523 32.13708008 3.67114258 31.49609375 C3.10771904 30.56889778 3.10771904 30.56889778 2.53291321 29.62297058 C1.41590261 27.78273399 0.30168732 25.94082386 -0.8125 24.09887695 C-2.11853114 21.94192122 -3.43929589 19.79725709 -4.77294922 17.65698242 C-5.31604736 16.77888916 -5.85914551 15.9007959 -6.41870117 14.99609375 C-6.88896729 14.24561768 -7.3592334 13.4951416 -7.84375 12.72192383 C-9.46255865 9.56556525 -9.5317832 7.10829037 -8.89916992 3.6640625 C-7.07698423 0.13357772 -3.80972502 -0.15233707 0 0 Z " fill="#030302" transform="translate(383.899169921875,42.3359375)"/>
<path d="M0 0 C16.5 0 33 0 50 0 C52.4426549 17.09858427 53.13631774 33.20617009 53.0625 50.375 C53.041875 57.18125 53.02125 63.9875 53 71 C34.52 71 16.04 71 -3 71 C-3 57.80950108 -2.95700205 44.84492899 -2.20043945 31.70922852 C-2.06024146 29.2732573 -1.92887662 26.83692304 -1.79882812 24.40039062 C-1.71143506 22.80466017 -1.62356258 21.20895589 -1.53515625 19.61328125 C-1.49656998 18.90786697 -1.4579837 18.2024527 -1.41822815 17.47566223 C-1.07905709 11.6289035 -0.5311767 5.84294371 0 0 Z " fill="#5FB5FD" transform="translate(226,200)"/>
<path d="M0 0 C16.17 0 32.34 0 49 0 C52.43103448 10.29310345 52.43103448 10.29310345 53.5625 14.4375 C53.90474609 15.67306641 53.90474609 15.67306641 54.25390625 16.93359375 C56.26986943 25.21909686 57.57315786 33.54233058 58.625 42 C58.7590625 43.01578125 58.893125 44.0315625 59.03125 45.078125 C59.40451644 48.04902119 59.71065925 51.01989114 60 54 C60.12084961 54.90105469 60.24169922 55.80210937 60.36621094 56.73046875 C60.67430211 60.35088237 60.76219386 62.93244613 58.59707642 65.96498108 C53.74149066 70.49173591 50.24010169 71.79664414 43.62280273 71.79307556 C42.59227783 71.75694656 41.56175293 71.72081757 40.5 71.68359375 C39.42371338 71.67368912 38.34742676 71.66378448 37.23852539 71.65357971 C33.82425665 71.61461063 30.41328541 71.52681647 27 71.4375 C24.67582791 71.40236378 22.35160507 71.37042884 20.02734375 71.34179688 C14.35045062 71.26490677 8.67546092 71.14799422 3 71 C2.98018066 69.80850342 2.96036133 68.61700684 2.93994141 67.3894043 C2.55301904 44.84978393 1.95918661 22.46533978 0 0 Z " fill="#00F0A5" transform="translate(291,200)"/>
<path d="M0 0 C18.48 0 36.96 0 56 0 C56.18643667 51.45652174 56.18643667 51.45652174 53 71 C47.06 71 41.12 71 35 71 C34.79375 68.586875 34.5875 66.17375 34.375 63.6875 C33.26845663 53.74780994 29.57356382 45.44382494 22.11328125 38.5625 C15.28312034 33.51247345 8.19839727 31.04959932 0 29 C0 19.43 0 9.86 0 0 Z " fill="#5FB5FD" transform="translate(223,286)"/>
<path d="M0 0 C1.68216214 0.00031737 3.36434441 0.01165683 5.04638672 0.03173828 C6.37390457 0.03598312 6.37390457 0.03598312 7.72824097 0.04031372 C10.56098834 0.05152838 13.39342206 0.07663508 16.22607422 0.10205078 C18.14403841 0.11207893 20.06200755 0.12120507 21.97998047 0.12939453 C26.68713298 0.15147189 31.39405038 0.18601033 36.10107422 0.22705078 C36.26888159 2.90269857 36.43381759 5.5784739 36.59716797 8.25439453 C36.66792542 9.37557678 36.66792542 9.37557678 36.7401123 10.51940918 C37.13792982 17.09677773 37.20421668 23.6373934 37.10107422 30.22705078 C36.17166016 30.65115234 35.24224609 31.07525391 34.28466797 31.51220703 C21.33583443 37.57623031 14.1388684 44.58361951 9.10107422 58.22705078 C8.32844423 62.67081616 8.15143779 66.69432943 8.10107422 71.22705078 C2.16107422 71.22705078 -3.77892578 71.22705078 -9.89892578 71.22705078 C-13.34951973 59.39644297 -15.82026905 47.63983842 -17.71142578 35.47705078 C-17.82215424 34.77523682 -17.93288269 34.07342285 -18.04696655 33.3503418 C-18.36561762 31.31549107 -18.67525842 29.27950916 -18.98095703 27.24267578 C-19.15860596 26.05963867 -19.33625488 24.87660156 -19.51928711 23.65771484 C-20.56872117 14.17434029 -20.56872117 14.17434029 -18.64550781 11.4543457 C-18.07171387 11.04289307 -17.49791992 10.63144043 -16.90673828 10.20751953 C-16.28412109 9.7428125 -15.66150391 9.27810547 -15.02001953 8.79931641 C-14.36130859 8.34234375 -13.70259766 7.88537109 -13.02392578 7.41455078 C-11.73446997 6.47107767 -10.44539127 5.52708889 -9.15673828 4.58251953 C-8.58068848 4.17670654 -8.00463867 3.77089355 -7.41113281 3.3527832 C-3.15403674 0.18367277 -3.15403674 0.18367277 0 0 Z " fill="#04E09A" transform="translate(171.89892578125,285.77294921875)"/>
<path d="M0 0 C15.84 0 31.68 0 48 0 C56.10326087 16.20652174 56.10326087 16.20652174 58.875 24.9375 C59.16890625 25.81728516 59.4628125 26.69707031 59.765625 27.60351562 C61.33277296 32.40919641 62.4664277 36.97210716 63 42 C62.02804687 42.01417969 61.05609375 42.02835938 60.0546875 42.04296875 C43.90050728 42.51071547 27.70020549 45.36258956 13.265625 52.86328125 C11 54 11 54 9 54 C8.86948242 52.99324219 8.73896484 51.98648438 8.60449219 50.94921875 C8.10691309 47.13088248 7.59687497 43.31428813 7.08349609 39.49804688 C6.86504766 37.86176256 6.64975883 36.2250526 6.43798828 34.58789062 C5.13578782 24.5405809 3.41666118 14.81439738 0.77832031 5.02734375 C0 2 0 2 0 0 Z " fill="#5EB5FC" transform="translate(356,200)"/>
<path d="M0 0 C6.34560026 2.70996036 8.67386861 8.9944164 11.4375 15 C19.12148843 34.25829806 24 57.29137264 24 78 C9.15 78 -5.7 78 -21 78 C-21 67.84931507 -21 67.84931507 -20.3359375 63.71484375 C-20.18664795 62.78414062 -20.0373584 61.8534375 -19.88354492 60.89453125 C-19.7157251 59.91871094 -19.54790527 58.94289062 -19.375 57.9375 C-19.10876831 56.38289063 -19.10876831 56.38289063 -18.8371582 54.796875 C-11.46103442 13.28779318 -11.46103442 13.28779318 0 0 Z " fill="#25A4FA" transform="translate(250,107)"/>
<path d="M0 0 C0.13051758 0.8751123 0.26103516 1.75022461 0.39550781 2.65185547 C0.89747541 5.99640137 1.4052193 9.33997588 1.91650391 12.68310547 C2.13388054 14.11180782 2.34915331 15.54083235 2.56201172 16.97021484 C4.22755859 28.13964052 6.54148364 38.93667637 9 50 C-6.84 50 -22.68 50 -39 50 C-54.23558484 19.52883031 -54.23558484 19.52883031 -54 7 C-53.175 6.9906543 -52.35 6.98130859 -51.5 6.97167969 C-27.9177244 6.89450909 -27.9177244 6.89450909 -5.28515625 0.87109375 C-3 0 -3 0 0 0 Z " fill="#5EB5FC" transform="translate(138,307)"/>
<path d="M0 0 C16.80481192 3.33684065 31.21980089 18.9055806 41 32 C41.39606445 32.52303711 41.79212891 33.04607422 42.20019531 33.58496094 C49.65743794 43.57394644 63 61.49719841 63 74 C47.82 74 32.64 74 17 74 C14.6875 58.9375 14.6875 58.9375 13.97924805 54.28881836 C12.0014962 41.52510711 9.83958878 28.85867637 6 16.5 C5.7525 15.67242187 5.505 14.84484375 5.25 13.9921875 C3.78120745 9.17271196 2.0737552 4.59188651 0 0 Z " fill="#04E09A" transform="translate(272,111)"/>
<path d="M0 0 C2.70858387 -0.11002979 5.35000923 -0.0413959 8.05664062 0.10644531 C8.9925 0.13351562 9.92835938 0.16058594 10.89257812 0.18847656 C13.19961303 0.25910008 15.50194832 0.35763953 17.80664062 0.48144531 C18.24588379 8.555153 16.64511217 16.32856652 15.18164062 24.23144531 C15.04692352 24.96521393 14.91220642 25.69898254 14.77340698 26.45498657 C6.94517783 68.75625724 6.94517783 68.75625724 -4.19335938 78.48144531 C-9.04456777 76.76551571 -10.32229696 73.16186647 -12.47192383 68.75341797 C-19.18302426 54.35596305 -25.19335938 35.46329104 -25.19335938 19.48144531 C-24.40832031 19.12953125 -23.62328125 18.77761719 -22.81445312 18.41503906 C-15.04740879 14.76500473 -8.49223559 11.23013407 -4.64648438 3.28613281 C-2.19335938 0.48144531 -2.19335938 0.48144531 0 0 Z " fill="#25A4FB" transform="translate(256.193359375,371.5185546875)"/>
<path d="M0 0 C9.9 0 19.8 0 30 0 C32.9375 7.4375 32.9375 7.4375 33.85913086 9.78295898 C35.01317454 13.1408136 35.01317454 13.1408136 37 16 C36.65858576 21.77498554 34.94343435 25.5511894 31.9375 30.3125 C31.33023071 31.29524902 31.33023071 31.29524902 30.71069336 32.29785156 C27.20107065 37.87869329 23.32698468 43.02356171 19 48 C18.24074219 48.90363281 17.48148437 49.80726563 16.69921875 50.73828125 C8.11263469 60.63955761 -2.03665123 68.53287825 -14 74 C-14.66 74 -15.32 74 -16 74 C-15.40430307 70.75956506 -14.63743625 67.72069492 -13.546875 64.61328125 C-6.36523373 43.54189438 -2.94497859 22.00984002 0 0 Z " fill="#04DF99" transform="translate(289,372)"/>
<path d="M0 0 C14.52 0 29.04 0 44 0 C45.464375 3.444375 46.92875 6.88875 48.4375 10.4375 C57.07049965 30.39327697 66.77142291 47.88885728 81.84765625 63.671875 C84 66 84 66 85 68 C77.84589653 65.83097582 71.42277913 62.91401309 64.8125 59.4375 C63.8009082 58.90664795 62.78931641 58.3757959 61.74707031 57.82885742 C53.62739781 53.48811527 46.22786093 48.68377007 39 43 C38.08863281 42.3090625 37.17726562 41.618125 36.23828125 40.90625 C22.07250291 29.82178695 8.10198771 16.20397542 0 0 Z " fill="#25A4FA" transform="translate(108,372)"/>
<path d="M0 0 C34.24328681 9.78379623 64.67791075 36.81131198 84 66 C84 66.33 84 66.66 84 67 C69.48 67 54.96 67 40 67 C37.6178125 61.4003125 37.6178125 61.4003125 35.1875 55.6875 C26.54202018 35.83323597 16.11736626 18.55003303 1.3984375 2.609375 C0 1 0 1 0 0 Z " fill="#26A4FA" transform="translate(311,118)"/>
<path d="M0 0 C5.52308765 4.01259812 9.61516776 8.11228175 11 15 C11.65965692 23.9941684 10.91750985 30.56907928 5.125 37.75 C0.82823877 42.49345423 -3.4008429 44.73602797 -9.76953125 45.203125 C-18.82544129 45.34262554 -24.72313761 43.67848073 -31.4921875 37.546875 C-37.10713837 31.78645908 -37.3039645 25.63417485 -37.2109375 17.96875 C-36.70561317 10.85677797 -32.94758992 5.82265078 -28 1 C-20.00126862 -4.71337956 -8.42349723 -4.95499837 0 0 Z " fill="#FDDF76" transform="translate(232,333)"/>
<path d="M0 0 C-0.391875 1.134375 -0.78375 2.26875 -1.1875 3.4375 C-1.79730544 5.28981982 -2.40054152 7.14430581 -3 9 C-3.37511719 10.15628906 -3.75023437 11.31257813 -4.13671875 12.50390625 C-9.49388944 29.55667163 -12.64425132 47.21331579 -15.10009766 64.89575195 C-15.53857211 68.05057233 -15.99005604 70.97016812 -17 74 C-23.27 74 -29.54 74 -36 74 C-37.03125 71.73125 -38.0625 69.4625 -39.125 67.125 C-41.69992039 61.49655856 -44.51429784 56.26237303 -48.03125 51.1484375 C-49.32077674 48.28859998 -48.97296534 46.95526857 -48 44 C-40.54282983 29.36706231 -18.24413214 0 0 0 Z " fill="#04E09A" transform="translate(230,111)"/>
<path d="M0 0 C14.1742884 -1.37829215 14.1742884 -1.37829215 18.375 1.79296875 C20.0637195 4.12668528 21.52758856 6.52569979 23 9 C29.32151424 16.0587628 38.59178311 20.37278554 48 21 C49.54166604 26.0016948 50.61576196 30.99743616 51.59887695 36.13623047 C53.7419956 47.24560284 56.66767294 57.68650012 60.64453125 68.2734375 C62 72 62 72 62 74 C41.55889099 68.62076079 25.06366489 48.94069826 14.51953125 31.55957031 C0 6.6648622 0 6.6648622 0 0 Z " fill="#04DF99" transform="translate(168,372)"/>
<path d="M0 0 C11.88 0 23.76 0 36 0 C34.54580579 3.63548554 33.00009226 6.97009484 31.18188477 10.41772461 C22.98757399 26.0775844 20.81622653 40.51516248 20.9375 58.0625 C20.94201172 59.30966797 20.94652344 60.55683594 20.95117188 61.84179688 C20.96286826 64.89455223 20.98080052 67.94728261 21 71 C13.08 71 5.16 71 -3 71 C-2.86722656 69.22625 -2.73445313 67.4525 -2.59765625 65.625 C-1.03785594 43.75978412 -0.4246482 21.91408228 0 0 Z " fill="#04DF99" transform="translate(294,286)"/>
<path d="M0 0 C8.25 0 16.5 0 25 0 C24.85691406 2.40023437 24.71382812 4.80046875 24.56640625 7.2734375 C23.83841979 20.04929103 23.40539605 32.83756464 22.9375 45.625 C22.84585401 48.09635977 22.75405817 50.56771398 22.66210938 53.0390625 C22.43940601 59.02597087 22.21976587 65.01298024 22 71 C13.75 71 5.5 71 -3 71 C-3.20207416 57.05688316 -2.80857856 43.23070113 -2.0625 29.3125 C-2.01893372 28.48957458 -1.97536743 27.66664917 -1.93048096 26.81878662 C-1.80199406 24.4167572 -1.66958402 22.01498503 -1.53515625 19.61328125 C-1.49655991 18.90856186 -1.45796356 18.20384247 -1.41819763 17.47776794 C-1.07941174 11.63028504 -0.53123903 5.84362935 0 0 Z " fill="#25A4FB" transform="translate(226,200)"/>
<path d="M0 0 C1.875 0.875 1.875 0.875 4.875 2.875 C8.41723486 2.55872903 11.50144274 1.99951909 14.875 0.875 C28.66858831 -0.39263234 39.83231084 0.78407374 50.76953125 9.82421875 C57.70734393 16.5818285 62.94254539 24.96933182 63.16796875 34.8125 C63.14834373 36.50025208 63.11303554 38.18789053 63.0625 39.875 C63.04219727 41.18017578 63.04219727 41.18017578 63.02148438 42.51171875 C62.98651678 44.63308627 62.9327253 46.75412974 62.875 48.875 C59.875 49.875 59.875 49.875 56.25 48.75 C54.37890625 47.625 54.37890625 47.625 52.875 45.875 C52.2604931 42.64547468 52.18189922 39.55016421 52.08984375 36.265625 C51.60974952 28.6888652 48.55759626 22.41231614 42.90625 17.34765625 C35.26871392 11.81044259 27.11630924 10.7737629 17.875 11.875 C10.73348641 13.55594122 5.1811466 16.88533332 0.875 22.875 C-2.69040469 29.34273107 -3.70754017 35.56945305 -4.125 42.875 C-7.425 43.535 -10.725 44.195 -14.125 44.875 C-14.1793965 42.49968606 -14.21885864 40.12564117 -14.25 37.75 C-14.26675781 37.08484375 -14.28351563 36.4196875 -14.30078125 35.734375 C-14.34375027 31.35153505 -13.63428967 27.96412201 -12.125 23.875 C-11.80329949 19.29076771 -12.11501142 16.02060144 -14.125 11.875 C-3.92883621 -0.23110801 -3.92883621 -0.23110801 0 0 Z " fill="#F7BD41" transform="translate(81.125,76.125)"/>
<path d="M0 0 C2.962411 1.59343233 5.50052705 3.65695048 8.125 5.75 C22.33748216 16.50383595 37.62816664 24.75424735 53.98144531 31.79174805 C55.29387207 32.36082886 55.29387207 32.36082886 56.6328125 32.94140625 C57.40512207 33.26826416 58.17743164 33.59512207 58.97314453 33.93188477 C61.14464261 35.07622397 62.49547964 36.06005306 64 38 C64.75471698 44.79245283 64.75471698 44.79245283 62.4375 48.5 C59.05413502 50.58207076 56.95252246 50.31172574 53 50 C50.12729232 49.12361729 47.46277331 47.90641656 44.75 46.625 C43.97640137 46.26921875 43.20280273 45.9134375 42.40576172 45.546875 C23.62573122 36.78915224 3.81753088 26.81753088 -11 12 C-11.67039106 5.0726257 -11.67039106 5.0726257 -9.4375 1.5 C-5.9857177 -0.62417372 -4.02716372 -0.47330394 0 0 Z " fill="#000000" transform="translate(118,440)"/>
<path d="M0 0 C16.17 0 32.34 0 49 0 C49 0.33 49 0.66 49 1 C38.44 1 27.88 1 17 1 C17.309375 4.96 17.61875 8.92 17.9375 13 C18.12211087 15.41919343 18.3059073 17.83844941 18.48828125 20.2578125 C18.76597516 23.94117689 19.04917152 27.62360184 19.35546875 31.3046875 C20.35270553 44.51446166 20.08366872 57.76174936 20 71 C14.39 71 8.78 71 3 71 C2.98018066 69.80850342 2.96036133 68.61700684 2.93994141 67.3894043 C2.55301904 44.84978393 1.95918661 22.46533978 0 0 Z " fill="#04E09A" transform="translate(291,200)"/>
<path d="M0 0 C10.56 0 21.12 0 32 0 C32.67478081 9.69997412 33.14993071 19.27116304 33 29 C32.07058594 29.42410156 31.14117187 29.84820312 30.18359375 30.28515625 C21.56675959 34.32815342 14.96294819 38.21262619 9.75 46.4375 C9.1725 47.283125 8.595 48.12875 8 49 C7.01 49 6.02 49 5 49 C4.35015283 44.70893131 3.70586159 40.41704548 3.0625 36.125 C2.88009766 34.92101562 2.69769531 33.71703125 2.50976562 32.4765625 C0.86406231 21.46531123 0 11.22004188 0 0 Z " fill="#00EFA4" transform="translate(176,287)"/>
<path d="M0 0 C4.95 0 9.9 0 15 0 C14.86722656 1.91296875 14.73445313 3.8259375 14.59765625 5.796875 C13.60858575 20.38215587 12.75578472 34.94415349 12.34204102 49.55957031 C12.29454712 51.16010254 12.29454712 51.16010254 12.24609375 52.79296875 C12.22216553 53.7058667 12.1982373 54.61876465 12.17358398 55.55932617 C11.91350217 60.71450614 11.42865888 65.85609345 11 71 C2.42 71 -6.16 71 -15 71 C-13.60683206 67.51708014 -12.15408662 64.16321727 -10.5378418 60.78662109 C-2.88198144 44.75415609 0.37951673 30.59177293 0.125 12.6875 C0.11597656 11.45837891 0.10695312 10.22925781 0.09765625 8.96289062 C0.07440553 5.97517355 0.03854915 2.98755885 0 0 Z " fill="#00EBA1" transform="translate(197,200)"/>
<path d="M0 0 C14.99851519 4.67695635 26.17745357 28.03136452 33 40.9375 C33.45697266 41.80109131 33.91394531 42.66468262 34.38476562 43.55444336 C37.20805213 49.0491642 38.99088519 53.97265556 41 60 C31.43 60 21.86 60 12 60 C11.608125 57.73125 11.21625 55.4625 10.8125 53.125 C7.68392034 35.31643731 4.37501233 17.54893214 0 0 Z " fill="#00EFA4" transform="translate(294,125)"/>
<path d="M0 0 C7.92 0 15.84 0 24 0 C25.0209375 3.8671875 25.0209375 3.8671875 26.0625 7.8125 C28.56778088 17.03991354 31.76791037 25.94590718 35.2097168 34.86035156 C36.20347652 37.55090152 37.09299297 40.27897892 38 43 C30.41 43 22.82 43 15 43 C0 14.01694915 0 14.01694915 0 0 Z " fill="#25A4FB" transform="translate(84,314)"/>
<path d="M0 0 C21.48926569 3.98872681 44.34170786 33.2989918 56.1640625 50.2265625 C58 53 58 53 58 54 C48.76 54 39.52 54 30 54 C29.01 51.855 28.02 49.71 27 47.5 C19.654095 31.73982169 11.94884466 17.10983744 1.50390625 3.1171875 C0 1 0 1 0 0 Z " fill="#5EB4FC" transform="translate(337,131)"/>
<path d="M0 0 C4.29 0 8.58 0 13 0 C13.63228516 1.60681641 13.63228516 1.60681641 14.27734375 3.24609375 C14.83059319 4.64328302 15.38398602 6.04041551 15.9375 7.4375 C16.35418945 8.49807617 16.35418945 8.49807617 16.77929688 9.58007812 C17.96222034 13.04673881 17.96222034 13.04673881 20 16 C19.65858576 21.77498554 17.94343435 25.5511894 14.9375 30.3125 C14.33023071 31.29524902 14.33023071 31.29524902 13.71069336 32.29785156 C10.20150492 37.87800275 6.33076972 43.02763476 2 48 C1.15953125 48.98484375 0.3190625 49.9696875 -0.546875 50.984375 C-7.89255888 59.40335766 -7.89255888 59.40335766 -13 61 C-12.84442627 60.44465576 -12.68885254 59.88931152 -12.52856445 59.31713867 C-9.25287106 47.50420692 -6.40549363 35.68466464 -4.1875 23.625 C-3.9810083 22.50375732 -3.7745166 21.38251465 -3.56176758 20.22729492 C-2.70532249 15.43789286 -1.9249084 10.67660201 -1.42578125 5.8359375 C-1 2 -1 2 0 0 Z " fill="#00EFA3" transform="translate(306,372)"/>
<path d="M0 0 C8.25 0 16.5 0 25 0 C25.33 13.86 25.66 27.72 26 42 C23.36 40.02 20.72 38.04 18 36 C15.4120315 34.40078605 15.4120315 34.40078605 13 33.25 C12.236875 32.86328125 11.47375 32.4765625 10.6875 32.078125 C7.24672788 30.69781526 3.59662165 29.89915541 0 29 C0 19.43 0 9.86 0 0 Z " fill="#25A2F8" transform="translate(223,286)"/>
<path d="M0 0 C5.28 0 10.56 0 16 0 C18.97036634 9.09516017 21.13949823 18.01251951 22.75 27.4375 C22.97042969 28.66404297 23.19085938 29.89058594 23.41796875 31.15429688 C24.35690596 36.5167364 25.12461595 41.54192352 25 47 C22.71070947 48.17154293 20.41881638 49.33738074 18.125 50.5 C17.47402344 50.83386719 16.82304687 51.16773438 16.15234375 51.51171875 C11.2265625 54 11.2265625 54 9 54 C8.86948242 52.99324219 8.73896484 51.98648438 8.60449219 50.94921875 C8.10691309 47.13088248 7.59687497 43.31428813 7.08349609 39.49804688 C6.86504766 37.86176256 6.64975883 36.2250526 6.43798828 34.58789062 C5.13578782 24.5405809 3.41666118 14.81439738 0.77832031 5.02734375 C0 2 0 2 0 0 Z " fill="#25A3FA" transform="translate(356,200)"/>
<path d="M0 0 C0.89203125 0.00902344 1.7840625 0.01804687 2.703125 0.02734375 C3.37859375 0.03894531 4.0540625 0.05054688 4.75 0.0625 C4.35167969 0.619375 3.95335937 1.17625 3.54296875 1.75 C-3.22627695 11.50034904 -5.49810239 18.98364238 -4.25 31.0625 C-3.3337303 34.36796759 -2.00698299 37.12671052 -0.25 40.0625 C0.43255859 41.21298828 0.43255859 41.21298828 1.12890625 42.38671875 C2.30288931 44.30322101 3.50579545 46.19109398 4.75 48.0625 C-3.55859993 48.51387263 -9.3649218 47.56205186 -16 42.1875 C-20.74345423 37.89073877 -22.98602797 33.6616571 -23.453125 27.29296875 C-23.59262554 18.23705871 -21.92848073 12.33936239 -15.796875 5.5703125 C-11.07120481 0.96397741 -6.39411545 -0.0841331 0 0 Z " fill="#FCCF5A" transform="translate(218.25,329.9375)"/>
<path d="M0 0 C5.99442354 8.9916353 7.07854351 21.98301272 8.75 32.4375 C8.97204729 33.75986802 9.19470203 35.08213419 9.41796875 36.40429688 C10.40730318 42.44783981 11 47.82593059 11 54 C4.07 54 -2.86 54 -10 54 C-9.12559428 42.55323426 -7.91527972 31.48862276 -5.5625 20.25 C-5.35729736 19.26386719 -5.15209473 18.27773437 -4.94067383 17.26171875 C-3.65793828 11.36223888 -2.04432838 5.68074691 0 0 Z " fill="#5DB3FA" transform="translate(263,131)"/>
<path d="M0 0 C0.83265381 0.00523682 1.66530762 0.01047363 2.52319336 0.01586914 C3.42231445 0.0190918 4.32143555 0.02231445 5.24780273 0.02563477 C6.66609375 0.03820312 6.66609375 0.03820312 8.11303711 0.05102539 C9.06243164 0.05553711 10.01182617 0.06004883 10.98999023 0.06469727 C13.34356776 0.07652429 15.69702188 0.09300514 18.05053711 0.11352539 C18.16181053 5.47430779 17.83056871 10.35616684 16.87866211 15.65649414 C16.75497253 16.34681229 16.63128296 17.03713043 16.50384521 17.74836731 C16.24164426 19.20022885 15.97591279 20.65145689 15.70678711 22.10205078 C15.30505741 24.27655761 14.91924504 26.45346325 14.53491211 28.63110352 C12.95835326 37.36209834 10.89400452 45.69354023 8.05053711 54.11352539 C6.05053711 53.11352539 6.05053711 53.11352539 5.41210938 51.28198242 C5.23220459 50.48646973 5.0522998 49.69095703 4.86694336 48.87133789 C4.66294922 47.97906494 4.45895508 47.08679199 4.2487793 46.16748047 C4.03898437 45.20092529 3.82918945 44.23437012 3.61303711 43.23852539 C3.39421875 42.25070068 3.17540039 41.26287598 2.94995117 40.24511719 C-2.84387285 13.52035505 -2.84387285 13.52035505 -2.94946289 1.11352539 C-1.94946289 0.11352539 -1.94946289 0.11352539 0 0 Z " fill="#5DB4FB" transform="translate(255.949462890625,371.886474609375)"/>
<path d="M0 0 C0.33 0 0.66 0 1 0 C0.65534065 5.82355449 -0.01634067 11.43316991 -1.3125 17.125 C-3.14560792 25.20692899 -4.3857933 33.3681656 -5.6418457 41.55712891 C-5.80386475 42.60433105 -5.96588379 43.6515332 -6.1328125 44.73046875 C-6.27605957 45.67301514 -6.41930664 46.61556152 -6.56689453 47.58666992 C-7 50 -7 50 -8 53 C-14.27 53 -20.54 53 -27 53 C-28.04946885 47.75265577 -27.9664469 47.03822385 -25.7890625 42.53515625 C-25.04112427 40.9737793 -25.04112427 40.9737793 -24.27807617 39.38085938 C-23.73256104 38.28580078 -23.1870459 37.19074219 -22.625 36.0625 C-22.07497314 34.94037109 -21.52494629 33.81824219 -20.95825195 32.66210938 C-15.18177624 21.0571403 -8.658169 9.74044012 0 0 Z " fill="#00EFA4" transform="translate(221,132)"/>
<path d="M0 0 C6.93 0 13.86 0 21 0 C21.61746094 1.46308594 22.23492187 2.92617188 22.87109375 4.43359375 C26.91448345 13.92739879 30.98407619 23.37410236 35.8125 32.5 C36.16046631 33.16185303 36.50843262 33.82370605 36.86694336 34.50561523 C38.64190985 37.78860743 40.55374871 40.83252899 42.76171875 43.84375 C45 47 45 47 45 49 C26.37881176 40.63770713 9.79233839 18.21178932 0 1 C0 0.67 0 0.34 0 0 Z " fill="#5DB4FB" transform="translate(131,372)"/>
<path d="M0 0 C5.94 0 11.88 0 18 0 C16.61776825 3.45557937 15.17278768 6.73241866 13.53759766 10.06201172 C5.95918087 25.63648945 3.81892638 39.90580996 3.9375 57.0625 C3.94201172 58.30966797 3.94652344 59.55683594 3.95117188 60.84179688 C3.96286837 63.89458221 3.97925914 66.94726498 4 70 C1.69 70 -0.62 70 -3 70 C-2.2635018 46.65360576 -1.14424631 23.32929362 0 0 Z " fill="#00ECA2" transform="translate(311,287)"/>
<path d="M0 0 C4.91935902 4.11619836 9.52647956 8.40410362 14 13 C10.26992411 17.06528348 6.51526163 19.73834487 1.6875 22.375 C0.99833496 22.75640137 0.30916992 23.13780273 -0.40087891 23.53076172 C-5.46142292 26.28033542 -10.61395972 28.78341915 -15.875 31.125 C-16.55860596 31.43228027 -17.24221191 31.73956055 -17.9465332 32.05615234 C-19.60431301 32.76966988 -21.30004671 33.39378224 -23 34 C-23.66 33.67 -24.32 33.34 -25 33 C-24.32195312 32.30777344 -23.64390625 31.61554688 -22.9453125 30.90234375 C-16.04712635 23.7058644 -10.42127074 16.11930711 -5.09033203 7.70800781 C-3.43306189 5.11189005 -1.71654539 2.55722251 0 0 Z " fill="#25A1F7" transform="translate(336,405)"/>
<path d="M0 0 C4.13935041 1.70973169 6.66014934 4.18691003 9 8 C9.25 11.8125 9.25 11.8125 9 15 C-0.05638678 15.15178302 -8.97582223 14.69037426 -18 14 C-18.35199564 8.58998011 -18.35199564 8.58998011 -16.7578125 5.91796875 C-16.21898438 5.34691406 -15.68015625 4.77585937 -15.125 4.1875 C-14.59132813 3.60355469 -14.05765625 3.01960938 -13.5078125 2.41796875 C-9.74038158 -1.12497794 -4.8690031 -0.42305714 0 0 Z " fill="#F9F0C9" transform="translate(110,102)"/>
<path d="M0 0 C2.61497941 0.44828218 4.92344056 0.96776444 7.375 2 C10.55617053 3.21187449 13.62924226 3.60344027 17 4 C19.10535754 10.69975927 20.33099429 17.54240563 21.625 24.4375 C21.96917969 26.25024414 21.96917969 26.25024414 22.3203125 28.09960938 C22.88308224 31.0658749 23.44288896 34.0326674 24 37 C13.58391266 26.72538753 5.0104435 13.84100414 0 0 Z " fill="#00ECA2" transform="translate(199,389)"/>
<path d="M0 0 C-1.3921875 1.2684375 -1.3921875 1.2684375 -2.8125 2.5625 C-8.20064204 7.91758596 -12.43247136 14.21334476 -16.83398438 20.37646484 C-18.19530234 22.27193479 -19.58855547 24.14159803 -21 26 C-24.23693164 24.51516897 -26.9325625 22.67292565 -29.75 20.5 C-30.94882813 19.58734375 -30.94882813 19.58734375 -32.171875 18.65625 C-32.77515625 18.1096875 -33.3784375 17.563125 -34 17 C-34 16.34 -34 15.68 -34 15 C-26.02029779 10.37575732 -18.01468054 5.84912497 -9.6875 1.875 C-8.74668579 1.41468384 -8.74668579 1.41468384 -7.78686523 0.94506836 C-3.35937881 -1.11979294 -3.35937881 -1.11979294 0 0 Z " fill="#259FF4" transform="translate(192,119)"/>
<path d="M0 0 C12.87 0.495 12.87 0.495 26 1 C26 3.97 26 6.94 26 10 C18.08 10 10.16 10 2 10 C1.34 6.7 0.68 3.4 0 0 Z " fill="#FEEFAC" transform="translate(381,106)"/>
<path d="M0 0 C0.66 0 1.32 0 2 0 C3.32861328 1.82006836 3.32861328 1.82006836 4.8203125 4.33984375 C5.35527344 5.23767578 5.89023437 6.13550781 6.44140625 7.06054688 C6.99699219 8.00994141 7.55257813 8.95933594 8.125 9.9375 C8.68832031 10.88302734 9.25164062 11.82855469 9.83203125 12.80273438 C14 19.84185835 14 19.84185835 14 21 C8.06 21.33 2.12 21.66 -4 22 C-3.54653267 14.2003619 -2.59308786 7.37154537 0 0 Z " fill="#F6E7A6" transform="translate(385,71)"/>
<path d="M0 0 C1.32 0.66 2.64 1.32 4 2 C4 2.99 4 3.98 4 5 C1.6640625 6.859375 1.6640625 6.859375 -1.375 8.75 C-2.37273437 9.38421875 -3.37046875 10.0184375 -4.3984375 10.671875 C-5.25695312 11.11015625 -6.11546875 11.5484375 -7 12 C-7.66 11.67 -8.32 11.34 -9 11 C-6.03 7.37 -3.06 3.74 0 0 Z " fill="#5AAEF4" transform="translate(345,415)"/>
<path d="M0 0 C0.66 0 1.32 0 2 0 C0.7508258 3.45925163 -0.67527795 6.14693203 -3 9 C-4.32 8.34 -5.64 7.68 -7 7 C-4.66666667 4.66666667 -2.33333333 2.33333333 0 0 Z " fill="#58ADF3" transform="translate(174,136)"/>
</svg>
